<mxfile host="app.diagrams.net" agent="Mozilla/5.0 (Macintosh; Intel Mac OS X 10.15; rv:140.0) Gecko/20100101 Firefox/140.0" version="28.0.4">
  <diagram name="Page-1" id="4s5pO93pkH-oP1K1VLYs">
    <mxGraphModel dx="679" dy="382" grid="1" gridSize="10" guides="1" tooltips="1" connect="1" arrows="1" fold="1" page="1" pageScale="1" pageWidth="583" pageHeight="413" math="0" shadow="0">
      <root>
        <mxCell id="0" />
        <mxCell id="1" parent="0" />
        <mxCell id="rlKs7pb3UxPt6D7gpq-l-5" value="" style="edgeStyle=orthogonalEdgeStyle;rounded=0;orthogonalLoop=1;jettySize=auto;html=1;" edge="1" parent="1" source="rlKs7pb3UxPt6D7gpq-l-1" target="rlKs7pb3UxPt6D7gpq-l-4">
          <mxGeometry relative="1" as="geometry" />
        </mxCell>
        <mxCell id="rlKs7pb3UxPt6D7gpq-l-6" value="&lt;i&gt;TouchInterrupt&lt;/i&gt;" style="edgeLabel;html=1;align=center;verticalAlign=middle;resizable=0;points=[];" vertex="1" connectable="0" parent="rlKs7pb3UxPt6D7gpq-l-5">
          <mxGeometry x="-0.2413" y="-1" relative="1" as="geometry">
            <mxPoint as="offset" />
          </mxGeometry>
        </mxCell>
        <mxCell id="rlKs7pb3UxPt6D7gpq-l-1" value="&quot;Away&quot; Idle" style="ellipse;whiteSpace=wrap;html=1;aspect=fixed;" vertex="1" parent="1">
          <mxGeometry x="60" y="160" width="80" height="80" as="geometry" />
        </mxCell>
        <mxCell id="rlKs7pb3UxPt6D7gpq-l-2" value="&quot;There&quot; Idle" style="ellipse;whiteSpace=wrap;html=1;" vertex="1" parent="1">
          <mxGeometry x="240" y="160" width="80" height="80" as="geometry" />
        </mxCell>
        <mxCell id="rlKs7pb3UxPt6D7gpq-l-3" value="&quot;Manual&quot; Idle" style="ellipse;whiteSpace=wrap;html=1;aspect=fixed;" vertex="1" parent="1">
          <mxGeometry x="420" y="160" width="80" height="80" as="geometry" />
        </mxCell>
        <mxCell id="rlKs7pb3UxPt6D7gpq-l-8" style="edgeStyle=orthogonalEdgeStyle;rounded=0;orthogonalLoop=1;jettySize=auto;html=1;exitX=1;exitY=0;exitDx=0;exitDy=0;entryX=1;entryY=1;entryDx=0;entryDy=0;curved=1;" edge="1" parent="1" source="rlKs7pb3UxPt6D7gpq-l-4" target="rlKs7pb3UxPt6D7gpq-l-1">
          <mxGeometry relative="1" as="geometry">
            <Array as="points">
              <mxPoint x="150" y="312" />
              <mxPoint x="150" y="228" />
            </Array>
          </mxGeometry>
        </mxCell>
        <mxCell id="rlKs7pb3UxPt6D7gpq-l-9" value="Invalid" style="edgeLabel;html=1;align=center;verticalAlign=middle;resizable=0;points=[];" vertex="1" connectable="0" parent="rlKs7pb3UxPt6D7gpq-l-8">
          <mxGeometry x="0.039" y="1" relative="1" as="geometry">
            <mxPoint y="22" as="offset" />
          </mxGeometry>
        </mxCell>
        <mxCell id="rlKs7pb3UxPt6D7gpq-l-4" value="Decode Touch" style="ellipse;whiteSpace=wrap;html=1;aspect=fixed;" vertex="1" parent="1">
          <mxGeometry x="60" y="300" width="80" height="80" as="geometry" />
        </mxCell>
        <mxCell id="rlKs7pb3UxPt6D7gpq-l-10" style="edgeStyle=orthogonalEdgeStyle;rounded=0;orthogonalLoop=1;jettySize=auto;html=1;entryX=0.542;entryY=0.987;entryDx=0;entryDy=0;entryPerimeter=0;curved=1;" edge="1" parent="1">
          <mxGeometry relative="1" as="geometry">
            <mxPoint x="140" y="341.04" as="sourcePoint" />
            <mxPoint x="283.36" y="240.00000000000003" as="targetPoint" />
          </mxGeometry>
        </mxCell>
        <mxCell id="rlKs7pb3UxPt6D7gpq-l-11" value="Transition There" style="edgeLabel;html=1;align=center;verticalAlign=middle;resizable=0;points=[];" vertex="1" connectable="0" parent="rlKs7pb3UxPt6D7gpq-l-10">
          <mxGeometry x="-0.2395" y="18" relative="1" as="geometry">
            <mxPoint as="offset" />
          </mxGeometry>
        </mxCell>
      </root>
    </mxGraphModel>
  </diagram>
</mxfile>
